# xmcd CD database file
#
# Track frame offsets:
#	150
#	12427
#	24768
#	41767
#	61123
#	76475
#	104188
#	125362
#	143796
#	162119
#	184572
#	203958
#	217420
#	231097
#
# Disc length: 3359 seconds
#
# Revision: 0
# Processed by: cddbd v1.4PL0 Copyright (c) Steve Scherf et al.
# Submitted via: CDex 1.50
#
DISCID=c20d1d0e
DTITLE=Patrick Verbeke - Y2K Blues
DYEAR=2000
DGENRE=Blues
TTITLE0=Maybellene
TTITLE1=Karina
TTITLE2=How many more tears
TTITLE3=Baby blues 2000
TTITLE4=She belongs to me
TTITLE5=Immatriculé 92
TTITLE6=Coco
TTITLE7=Tampa
TTITLE8=Les fiches bananes (et les pinces crocodiles)
TTITLE9=You've got a friend
TTITLE10=Marche mon gars
TTITLE11=Allez viens à New Orleans
TTITLE12=J'marche doucement
TTITLE13=Sweet Lou
EXTD=YEAR: 2000
EXTT0=
EXTT1=
EXTT2=
EXTT3=
EXTT4=
EXTT5=
EXTT6=
EXTT7=
EXTT8=
EXTT9=
EXTT10=
EXTT11=
EXTT12=
EXTT13=
PLAYORDER=
